<?xml version="1.0" encoding="utf-8"?>
<svg version="1.1" xmlns:xlink="http://www.w3.org/1999/xlink" width="160px" height="214px" xmlns="http://www.w3.org/2000/svg">
  <g transform="matrix(1 0 0 1 -633 -226 )">
    <path d="M 633 226  L 793 226  L 793 440  L 633 440  L 633 226  " fill-rule="nonzero" fill="#cccccc" stroke="none" />
    <path d="M 644 237  L 782 237  L 782 429  L 644 429  L 644 237  " fill-rule="nonzero" fill="#ffffff" stroke="none" />
    <path d="M 728.2 282.1  C 721.48 282.1  716.2 276.82  716.2 270.1  C 716.2 263.38  721.48 258.1  728.2 258.1  C 734.92 258.1  740.2 263.38  740.2 270.1  C 740.2 276.82  734.92 282.1  728.2 282.1  " fill-rule="nonzero" fill="#cccccc" stroke="none" />
    <path d="M 648 425  L 648 323.8  L 680.5 277.8  L 726 314.6  L 752 305.4  L 778 314.6  L 778 425  L 648 425  " fill-rule="nonzero" fill="#169bd5" stroke="none" />
  </g>
</svg>